<svg width="33" height="33" viewBox="0 0 33 33" fill="none" xmlns="http://www.w3.org/2000/svg">
  <path d="M27.5 4.125H5.5C4.05025 4.125 2.75 5.42525 2.75 6.875V22C2.75 23.4497 4.05025 24.75 5.5 24.75H8.25V29.425C8.25 29.975 8.8 30.3049 9.24975 30.0049L16.5 24.75H27.5C28.9497 24.75 30.25 23.4497 30.25 22V6.875C30.25 5.42525 28.9497 4.125 27.5 4.125ZM27.5 22H15.8752L11 25.4375V22H5.5V6.875H27.5V22Z" fill="white"/>
  <path d="M11 13.75H22V16.5H11V13.75Z" fill="white"/>
  <path d="M11 8.25H22V11H11V8.25Z" fill="white"/>
</svg>
